<svg xmlns="http://www.w3.org/2000/svg" xmlns:xlink="http://www.w3.org/1999/xlink" width="500" zoomAndPan="magnify" viewBox="0 0 375 374.999991" height="500" preserveAspectRatio="xMidYMid meet" version="1.0"><defs><g/></defs><g fill="#231f20" fill-opacity="1"><g transform="translate(16.588476, 218.599687)"><g><path d="M 3.578125 -39.6875 C 3.578125 -41.164062 3.375 -42.332031 2.96875 -43.1875 C 2.570312 -44.050781 1.910156 -44.601562 0.984375 -44.84375 L 0.984375 -45.25 L 32.828125 -45.25 L 32.828125 -31.59375 L 32.421875 -31.59375 C 32.421875 -32.46875 32.203125 -33.457031 31.765625 -34.5625 C 31.328125 -35.675781 30.695312 -36.816406 29.875 -37.984375 C 29.0625 -39.148438 28.097656 -40.210938 26.984375 -41.171875 C 25.878906 -42.140625 24.632812 -42.925781 23.25 -43.53125 C 21.875 -44.144531 20.40625 -44.453125 18.84375 -44.453125 L 16.265625 -44.453125 L 16.265625 -24.5625 L 17.8125 -24.5625 C 18.789062 -24.5625 19.789062 -24.765625 20.8125 -25.171875 C 21.832031 -25.585938 22.785156 -26.117188 23.671875 -26.765625 C 24.554688 -27.410156 25.296875 -28.128906 25.890625 -28.921875 C 26.484375 -29.722656 26.847656 -30.492188 26.984375 -31.234375 L 27.390625 -31.234375 L 27.390625 -17.109375 L 26.984375 -17.109375 C 26.847656 -17.867188 26.484375 -18.640625 25.890625 -19.421875 C 25.296875 -20.203125 24.554688 -20.914062 23.671875 -21.5625 C 22.785156 -22.21875 21.832031 -22.75 20.8125 -23.15625 C 19.789062 -23.5625 18.789062 -23.765625 17.8125 -23.765625 L 16.265625 -23.765625 L 16.265625 -5.5625 C 16.265625 -4.101562 16.460938 -2.9375 16.859375 -2.0625 C 17.265625 -1.1875 17.925781 -0.628906 18.84375 -0.390625 L 18.84375 0 L 0.984375 0 L 0.984375 -0.390625 C 1.910156 -0.628906 2.570312 -1.1875 2.96875 -2.0625 C 3.375 -2.9375 3.578125 -4.101562 3.578125 -5.5625 Z M 3.578125 -39.6875 "/></g></g></g><g fill="#231f20" fill-opacity="1"><g transform="translate(49.204713, 218.599687)"><g><path d="M 0.984375 -45.25 L 18.84375 -45.25 L 18.84375 -44.84375 C 17.925781 -44.601562 17.265625 -44.050781 16.859375 -43.1875 C 16.460938 -42.332031 16.265625 -41.164062 16.265625 -39.6875 L 16.265625 -6.75 C 16.265625 -6.164062 16.273438 -5.515625 16.296875 -4.796875 C 16.328125 -4.085938 16.425781 -3.394531 16.59375 -2.71875 C 16.769531 -2.039062 17.070312 -1.484375 17.5 -1.046875 C 17.925781 -0.609375 18.535156 -0.390625 19.328125 -0.390625 C 20.171875 -0.390625 20.8125 -0.59375 21.25 -1 C 21.6875 -1.414062 21.988281 -1.953125 22.15625 -2.609375 C 22.332031 -3.273438 22.425781 -3.972656 22.4375 -4.703125 C 22.457031 -5.429688 22.46875 -6.113281 22.46875 -6.75 L 22.46875 -39.6875 C 22.46875 -41.164062 22.265625 -42.332031 21.859375 -43.1875 C 21.460938 -44.050781 20.804688 -44.601562 19.890625 -44.84375 L 19.890625 -45.25 L 37.75 -45.25 L 37.75 -44.84375 C 36.820312 -44.601562 36.15625 -44.050781 35.75 -43.1875 C 35.351562 -42.332031 35.15625 -41.164062 35.15625 -39.6875 L 35.15625 -14.359375 C 35.15625 -11.191406 34.617188 -8.484375 33.546875 -6.234375 C 32.484375 -3.984375 30.789062 -2.253906 28.46875 -1.046875 C 26.15625 0.148438 23.125 0.75 19.375 0.75 C 15.632812 0.75 12.597656 0.148438 10.265625 -1.046875 C 7.941406 -2.253906 6.242188 -3.984375 5.171875 -6.234375 C 4.109375 -8.484375 3.578125 -11.191406 3.578125 -14.359375 L 3.578125 -39.6875 C 3.578125 -41.164062 3.375 -42.332031 2.96875 -43.1875 C 2.570312 -44.050781 1.910156 -44.601562 0.984375 -44.84375 Z M 0.984375 -45.25 "/></g></g></g><g fill="#231f20" fill-opacity="1"><g transform="translate(86.741234, 218.599687)"><g><path d="M 0.984375 -44.84375 L 0.984375 -45.25 L 23.890625 -45.25 C 26.585938 -45.25 28.835938 -44.773438 30.640625 -43.828125 C 32.441406 -42.890625 33.789062 -41.640625 34.6875 -40.078125 C 35.582031 -38.523438 36.03125 -36.804688 36.03125 -34.921875 C 36.03125 -32.960938 35.664062 -31.332031 34.9375 -30.03125 C 34.21875 -28.738281 33.207031 -27.722656 31.90625 -26.984375 C 30.613281 -26.242188 29.113281 -25.710938 27.40625 -25.390625 C 25.695312 -25.078125 23.851562 -24.921875 21.875 -24.921875 C 24.144531 -24.441406 26 -23.71875 27.4375 -22.75 C 28.882812 -21.789062 30.039062 -20.671875 30.90625 -19.390625 C 31.78125 -18.109375 32.460938 -16.742188 32.953125 -15.296875 C 33.441406 -13.859375 33.84375 -12.414062 34.15625 -10.96875 C 34.476562 -9.53125 34.816406 -8.179688 35.171875 -6.921875 C 35.535156 -5.671875 36.023438 -4.582031 36.640625 -3.65625 C 37.265625 -2.726562 38.125 -2.066406 39.21875 -1.671875 C 39.21875 -1.671875 39.128906 -1.550781 38.953125 -1.3125 C 38.773438 -1.070312 38.46875 -0.785156 38.03125 -0.453125 C 37.601562 -0.117188 36.988281 0.160156 36.1875 0.390625 C 35.394531 0.628906 34.378906 0.75 33.140625 0.75 C 30.648438 0.75 28.617188 0.394531 27.046875 -0.3125 C 25.472656 -1.03125 24.253906 -1.988281 23.390625 -3.1875 C 22.535156 -4.394531 21.921875 -5.742188 21.546875 -7.234375 C 21.179688 -8.734375 20.941406 -10.289062 20.828125 -11.90625 C 20.722656 -13.519531 20.644531 -15.070312 20.59375 -16.5625 C 20.539062 -18.0625 20.410156 -19.410156 20.203125 -20.609375 C 19.992188 -21.816406 19.585938 -22.773438 18.984375 -23.484375 C 18.390625 -24.203125 17.484375 -24.5625 16.265625 -24.5625 L 16.265625 -5.5625 C 16.265625 -4.101562 16.460938 -2.9375 16.859375 -2.0625 C 17.265625 -1.1875 17.925781 -0.628906 18.84375 -0.390625 L 18.84375 0 L 0.984375 0 L 0.984375 -0.390625 C 1.910156 -0.628906 2.570312 -1.1875 2.96875 -2.0625 C 3.375 -2.9375 3.578125 -4.101562 3.578125 -5.5625 L 3.578125 -39.6875 C 3.578125 -41.164062 3.375 -42.332031 2.96875 -43.1875 C 2.570312 -44.050781 1.910156 -44.601562 0.984375 -44.84375 Z M 17.0625 -44.734375 L 16.265625 -44.734375 L 16.265625 -25.359375 L 17.703125 -25.359375 C 18.703125 -25.359375 19.628906 -25.660156 20.484375 -26.265625 C 21.347656 -26.878906 22.039062 -27.910156 22.5625 -29.359375 C 23.082031 -30.816406 23.34375 -32.816406 23.34375 -35.359375 C 23.34375 -36.972656 23.15625 -38.492188 22.78125 -39.921875 C 22.40625 -41.347656 21.769531 -42.503906 20.875 -43.390625 C 19.976562 -44.285156 18.707031 -44.734375 17.0625 -44.734375 Z M 17.0625 -44.734375 "/></g></g></g><g fill="#231f20" fill-opacity="1"><g transform="translate(125.150716, 218.599687)"><g><path d="M 0.984375 -44.84375 L 0.984375 -45.25 L 13.9375 -45.25 L 32.734375 -12.984375 L 32.734375 -15.5625 C 32.734375 -17.519531 32.601562 -19.582031 32.34375 -21.75 C 32.082031 -23.914062 31.710938 -26.082031 31.234375 -28.25 C 30.753906 -30.425781 30.195312 -32.484375 29.5625 -34.421875 C 28.925781 -36.367188 28.21875 -38.113281 27.4375 -39.65625 C 26.65625 -41.207031 25.84375 -42.441406 25 -43.359375 C 24.15625 -44.273438 23.296875 -44.769531 22.421875 -44.84375 L 22.421875 -45.25 L 36.109375 -45.25 L 36.109375 -44.84375 C 35.179688 -44.601562 34.519531 -44.050781 34.125 -43.1875 C 33.726562 -42.332031 33.53125 -41.164062 33.53125 -39.6875 L 33.53125 -5.5625 C 33.53125 -4.101562 33.726562 -2.9375 34.125 -2.0625 C 34.519531 -1.1875 35.179688 -0.628906 36.109375 -0.390625 L 36.109375 0 L 25.125 0 L 4.359375 -35.640625 L 4.359375 -33.5 C 4.359375 -31.351562 4.484375 -29.085938 4.734375 -26.703125 C 4.992188 -24.328125 5.359375 -21.945312 5.828125 -19.5625 C 6.304688 -17.1875 6.875 -14.90625 7.53125 -12.71875 C 8.195312 -10.539062 8.925781 -8.5625 9.71875 -6.78125 C 10.507812 -5.007812 11.351562 -3.566406 12.25 -2.453125 C 13.15625 -1.347656 14.097656 -0.660156 15.078125 -0.390625 L 15.078125 0 L 0.984375 0 L 0.984375 -0.390625 C 1.910156 -0.628906 2.570312 -1.1875 2.96875 -2.0625 C 3.375 -2.9375 3.578125 -4.101562 3.578125 -5.5625 L 3.578125 -39.6875 C 3.578125 -41.164062 3.375 -42.332031 2.96875 -43.1875 C 2.570312 -44.050781 1.910156 -44.601562 0.984375 -44.84375 Z M 0.984375 -44.84375 "/></g></g></g><g fill="#231f20" fill-opacity="1"><g transform="translate(161.060374, 218.599687)"><g><path d="M 0.984375 0 L 0.984375 -0.390625 C 1.910156 -0.628906 2.570312 -1.1875 2.96875 -2.0625 C 3.375 -2.9375 3.578125 -4.101562 3.578125 -5.5625 L 3.578125 -39.6875 C 3.578125 -41.164062 3.375 -42.332031 2.96875 -43.1875 C 2.570312 -44.050781 1.910156 -44.601562 0.984375 -44.84375 L 0.984375 -45.25 L 18.84375 -45.25 L 18.84375 -44.84375 C 17.925781 -44.601562 17.265625 -44.050781 16.859375 -43.1875 C 16.460938 -42.332031 16.265625 -41.164062 16.265625 -39.6875 L 16.265625 -5.5625 C 16.265625 -4.101562 16.460938 -2.9375 16.859375 -2.0625 C 17.265625 -1.1875 17.925781 -0.628906 18.84375 -0.390625 L 18.84375 0 Z M 0.984375 0 "/></g></g></g><g fill="#231f20" fill-opacity="1"><g transform="translate(179.709368, 218.599687)"><g><path d="M 0.984375 -29.96875 L 0.984375 -45.25 L 35.359375 -45.25 L 35.359375 -29.96875 L 34.96875 -29.96875 C 34.96875 -31.101562 34.785156 -32.320312 34.421875 -33.625 C 34.066406 -34.9375 33.566406 -36.234375 32.921875 -37.515625 C 32.273438 -38.804688 31.519531 -39.972656 30.65625 -41.015625 C 29.800781 -42.054688 28.867188 -42.890625 27.859375 -43.515625 C 26.859375 -44.140625 25.8125 -44.453125 24.71875 -44.453125 L 24.328125 -44.453125 L 24.328125 -5.5625 C 24.328125 -4.101562 24.523438 -2.9375 24.921875 -2.0625 C 25.316406 -1.1875 25.976562 -0.628906 26.90625 -0.390625 L 26.90625 0 L 9.046875 0 L 9.046875 -0.390625 C 9.972656 -0.628906 10.632812 -1.1875 11.03125 -2.0625 C 11.425781 -2.9375 11.625 -4.101562 11.625 -5.5625 L 11.625 -44.453125 C 10.570312 -44.453125 9.535156 -44.140625 8.515625 -43.515625 C 7.492188 -42.890625 6.550781 -42.054688 5.6875 -41.015625 C 4.832031 -39.972656 4.078125 -38.804688 3.421875 -37.515625 C 2.773438 -36.234375 2.273438 -34.9375 1.921875 -33.625 C 1.566406 -32.320312 1.390625 -31.101562 1.390625 -29.96875 Z M 0.984375 -29.96875 "/></g></g></g><g fill="#231f20" fill-opacity="1"><g transform="translate(214.865112, 218.599687)"><g><path d="M 0.984375 -45.25 L 18.84375 -45.25 L 18.84375 -44.84375 C 17.925781 -44.601562 17.265625 -44.050781 16.859375 -43.1875 C 16.460938 -42.332031 16.265625 -41.164062 16.265625 -39.6875 L 16.265625 -6.75 C 16.265625 -6.164062 16.273438 -5.515625 16.296875 -4.796875 C 16.328125 -4.085938 16.425781 -3.394531 16.59375 -2.71875 C 16.769531 -2.039062 17.070312 -1.484375 17.5 -1.046875 C 17.925781 -0.609375 18.535156 -0.390625 19.328125 -0.390625 C 20.171875 -0.390625 20.8125 -0.59375 21.25 -1 C 21.6875 -1.414062 21.988281 -1.953125 22.15625 -2.609375 C 22.332031 -3.273438 22.425781 -3.972656 22.4375 -4.703125 C 22.457031 -5.429688 22.46875 -6.113281 22.46875 -6.75 L 22.46875 -39.6875 C 22.46875 -41.164062 22.265625 -42.332031 21.859375 -43.1875 C 21.460938 -44.050781 20.804688 -44.601562 19.890625 -44.84375 L 19.890625 -45.25 L 37.75 -45.25 L 37.75 -44.84375 C 36.820312 -44.601562 36.15625 -44.050781 35.75 -43.1875 C 35.351562 -42.332031 35.15625 -41.164062 35.15625 -39.6875 L 35.15625 -14.359375 C 35.15625 -11.191406 34.617188 -8.484375 33.546875 -6.234375 C 32.484375 -3.984375 30.789062 -2.253906 28.46875 -1.046875 C 26.15625 0.148438 23.125 0.75 19.375 0.75 C 15.632812 0.75 12.597656 0.148438 10.265625 -1.046875 C 7.941406 -2.253906 6.242188 -3.984375 5.171875 -6.234375 C 4.109375 -8.484375 3.578125 -11.191406 3.578125 -14.359375 L 3.578125 -39.6875 C 3.578125 -41.164062 3.375 -42.332031 2.96875 -43.1875 C 2.570312 -44.050781 1.910156 -44.601562 0.984375 -44.84375 Z M 0.984375 -45.25 "/></g></g></g><g fill="#231f20" fill-opacity="1"><g transform="translate(252.401639, 218.599687)"><g><path d="M 0.984375 -44.84375 L 0.984375 -45.25 L 23.890625 -45.25 C 26.585938 -45.25 28.835938 -44.773438 30.640625 -43.828125 C 32.441406 -42.890625 33.789062 -41.640625 34.6875 -40.078125 C 35.582031 -38.523438 36.03125 -36.804688 36.03125 -34.921875 C 36.03125 -32.960938 35.664062 -31.332031 34.9375 -30.03125 C 34.21875 -28.738281 33.207031 -27.722656 31.90625 -26.984375 C 30.613281 -26.242188 29.113281 -25.710938 27.40625 -25.390625 C 25.695312 -25.078125 23.851562 -24.921875 21.875 -24.921875 C 24.144531 -24.441406 26 -23.71875 27.4375 -22.75 C 28.882812 -21.789062 30.039062 -20.671875 30.90625 -19.390625 C 31.78125 -18.109375 32.460938 -16.742188 32.953125 -15.296875 C 33.441406 -13.859375 33.84375 -12.414062 34.15625 -10.96875 C 34.476562 -9.53125 34.816406 -8.179688 35.171875 -6.921875 C 35.535156 -5.671875 36.023438 -4.582031 36.640625 -3.65625 C 37.265625 -2.726562 38.125 -2.066406 39.21875 -1.671875 C 39.21875 -1.671875 39.128906 -1.550781 38.953125 -1.3125 C 38.773438 -1.070312 38.46875 -0.785156 38.03125 -0.453125 C 37.601562 -0.117188 36.988281 0.160156 36.1875 0.390625 C 35.394531 0.628906 34.378906 0.75 33.140625 0.75 C 30.648438 0.75 28.617188 0.394531 27.046875 -0.3125 C 25.472656 -1.03125 24.253906 -1.988281 23.390625 -3.1875 C 22.535156 -4.394531 21.921875 -5.742188 21.546875 -7.234375 C 21.179688 -8.734375 20.941406 -10.289062 20.828125 -11.90625 C 20.722656 -13.519531 20.644531 -15.070312 20.59375 -16.5625 C 20.539062 -18.0625 20.410156 -19.410156 20.203125 -20.609375 C 19.992188 -21.816406 19.585938 -22.773438 18.984375 -23.484375 C 18.390625 -24.203125 17.484375 -24.5625 16.265625 -24.5625 L 16.265625 -5.5625 C 16.265625 -4.101562 16.460938 -2.9375 16.859375 -2.0625 C 17.265625 -1.1875 17.925781 -0.628906 18.84375 -0.390625 L 18.84375 0 L 0.984375 0 L 0.984375 -0.390625 C 1.910156 -0.628906 2.570312 -1.1875 2.96875 -2.0625 C 3.375 -2.9375 3.578125 -4.101562 3.578125 -5.5625 L 3.578125 -39.6875 C 3.578125 -41.164062 3.375 -42.332031 2.96875 -43.1875 C 2.570312 -44.050781 1.910156 -44.601562 0.984375 -44.84375 Z M 17.0625 -44.734375 L 16.265625 -44.734375 L 16.265625 -25.359375 L 17.703125 -25.359375 C 18.703125 -25.359375 19.628906 -25.660156 20.484375 -26.265625 C 21.347656 -26.878906 22.039062 -27.910156 22.5625 -29.359375 C 23.082031 -30.816406 23.34375 -32.816406 23.34375 -35.359375 C 23.34375 -36.972656 23.15625 -38.492188 22.78125 -39.921875 C 22.40625 -41.347656 21.769531 -42.503906 20.875 -43.390625 C 19.976562 -44.285156 18.707031 -44.734375 17.0625 -44.734375 Z M 17.0625 -44.734375 "/></g></g></g><g fill="#231f20" fill-opacity="1"><g transform="translate(290.811121, 218.599687)"><g><path d="M 32.828125 0 L 0.984375 0 L 0.984375 -0.390625 C 1.910156 -0.628906 2.570312 -1.1875 2.96875 -2.0625 C 3.375 -2.9375 3.578125 -4.101562 3.578125 -5.5625 L 3.578125 -39.6875 C 3.578125 -41.164062 3.375 -42.332031 2.96875 -43.1875 C 2.570312 -44.050781 1.910156 -44.601562 0.984375 -44.84375 L 0.984375 -45.25 L 32.828125 -45.25 L 32.828125 -31.59375 L 32.421875 -31.59375 C 32.421875 -32.46875 32.203125 -33.457031 31.765625 -34.5625 C 31.328125 -35.675781 30.695312 -36.816406 29.875 -37.984375 C 29.0625 -39.148438 28.097656 -40.210938 26.984375 -41.171875 C 25.878906 -42.140625 24.632812 -42.925781 23.25 -43.53125 C 21.875 -44.144531 20.40625 -44.453125 18.84375 -44.453125 L 16.265625 -44.453125 L 16.265625 -24.5625 L 17.8125 -24.5625 C 18.789062 -24.5625 19.789062 -24.765625 20.8125 -25.171875 C 21.832031 -25.585938 22.785156 -26.117188 23.671875 -26.765625 C 24.554688 -27.410156 25.296875 -28.128906 25.890625 -28.921875 C 26.484375 -29.722656 26.847656 -30.492188 26.984375 -31.234375 L 27.390625 -31.234375 L 27.390625 -17.109375 L 26.984375 -17.109375 C 26.847656 -17.867188 26.484375 -18.640625 25.890625 -19.421875 C 25.296875 -20.203125 24.554688 -20.914062 23.671875 -21.5625 C 22.785156 -22.21875 21.832031 -22.75 20.8125 -23.15625 C 19.789062 -23.5625 18.789062 -23.765625 17.8125 -23.765625 L 16.265625 -23.765625 L 16.265625 -0.796875 L 18.84375 -0.796875 C 20.40625 -0.796875 21.875 -1.097656 23.25 -1.703125 C 24.632812 -2.316406 25.878906 -3.101562 26.984375 -4.0625 C 28.097656 -5.03125 29.0625 -6.097656 29.875 -7.265625 C 30.695312 -8.429688 31.328125 -9.566406 31.765625 -10.671875 C 32.203125 -11.785156 32.421875 -12.78125 32.421875 -13.65625 L 32.828125 -13.65625 Z M 32.828125 0 "/></g></g></g><g fill="#231f20" fill-opacity="1"><g transform="translate(323.427353, 218.599687)"><g><path d="M 23.421875 -5.71875 C 23.421875 -7.457031 23.113281 -8.960938 22.5 -10.234375 C 21.894531 -11.503906 21.078125 -12.613281 20.046875 -13.5625 C 19.015625 -14.519531 17.851562 -15.390625 16.5625 -16.171875 C 15.28125 -16.953125 13.957031 -17.71875 12.59375 -18.46875 C 11.238281 -19.226562 9.914062 -20.035156 8.625 -20.890625 C 7.34375 -21.753906 6.1875 -22.753906 5.15625 -23.890625 C 4.125 -25.023438 3.300781 -26.363281 2.6875 -27.90625 C 2.082031 -29.457031 1.78125 -31.296875 1.78125 -33.421875 C 1.78125 -36.304688 2.441406 -38.671875 3.765625 -40.515625 C 5.085938 -42.367188 6.882812 -43.742188 9.15625 -44.640625 C 11.4375 -45.546875 13.992188 -46 16.828125 -46 C 18.253906 -46 19.550781 -45.9375 20.71875 -45.8125 C 21.882812 -45.695312 23.046875 -45.570312 24.203125 -45.4375 C 25.367188 -45.3125 26.664062 -45.25 28.09375 -45.25 C 28.488281 -45.25 28.914062 -45.304688 29.375 -45.421875 C 29.84375 -45.535156 30.1875 -45.726562 30.40625 -46 L 30.796875 -46 L 30.796875 -31.59375 L 30.40625 -31.59375 C 30.269531 -32.675781 29.910156 -33.835938 29.328125 -35.078125 C 28.742188 -36.328125 27.992188 -37.546875 27.078125 -38.734375 C 26.171875 -39.921875 25.144531 -41.007812 24 -42 C 22.863281 -43 21.679688 -43.789062 20.453125 -44.375 C 19.222656 -44.957031 18 -45.25 16.78125 -45.25 C 15.28125 -45.25 14.003906 -44.773438 12.953125 -43.828125 C 11.910156 -42.890625 11.390625 -41.5625 11.390625 -39.84375 C 11.390625 -38.175781 11.691406 -36.734375 12.296875 -35.515625 C 12.910156 -34.296875 13.738281 -33.226562 14.78125 -32.3125 C 15.820312 -31.40625 16.984375 -30.570312 18.265625 -29.8125 C 19.554688 -29.0625 20.894531 -28.320312 22.28125 -27.59375 C 23.675781 -26.875 25.015625 -26.082031 26.296875 -25.21875 C 27.578125 -24.363281 28.738281 -23.382812 29.78125 -22.28125 C 30.832031 -21.1875 31.660156 -19.882812 32.265625 -18.375 C 32.867188 -16.863281 33.171875 -15.09375 33.171875 -13.0625 C 33.171875 -11.101562 32.785156 -9.28125 32.015625 -7.59375 C 31.253906 -5.914062 30.175781 -4.453125 28.78125 -3.203125 C 27.394531 -1.960938 25.765625 -0.992188 23.890625 -0.296875 C 22.015625 0.398438 19.960938 0.75 17.734375 0.75 C 15.566406 0.75 13.601562 0.582031 11.84375 0.25 C 10.082031 -0.0703125 8.425781 -0.582031 6.875 -1.28125 C 5.332031 -1.988281 3.796875 -2.898438 2.265625 -4.015625 L 2.265625 -19.015625 L 2.734375 -19.015625 C 2.734375 -18.453125 2.910156 -17.601562 3.265625 -16.46875 C 3.628906 -15.332031 4.140625 -14.050781 4.796875 -12.625 C 5.460938 -11.195312 6.25 -9.753906 7.15625 -8.296875 C 8.070312 -6.835938 9.082031 -5.484375 10.1875 -4.234375 C 11.300781 -2.992188 12.488281 -1.988281 13.75 -1.21875 C 15.007812 -0.457031 16.3125 -0.078125 17.65625 -0.078125 C 19.144531 -0.078125 20.304688 -0.328125 21.140625 -0.828125 C 21.972656 -1.335938 22.5625 -2.015625 22.90625 -2.859375 C 23.25 -3.703125 23.421875 -4.65625 23.421875 -5.71875 Z M 23.421875 -5.71875 "/></g></g></g><g fill="#231f20" fill-opacity="1"><g transform="translate(30.560387, 232.673614)"><g><path d="M 0.671875 0 L 0.671875 -4.5625 L 2.4375 -4.5625 C 2.875 -4.5625 3.222656 -4.453125 3.484375 -4.234375 C 3.742188 -4.015625 3.875 -3.71875 3.875 -3.34375 C 3.875 -3.125 3.820312 -2.929688 3.71875 -2.765625 C 3.613281 -2.597656 3.46875 -2.460938 3.28125 -2.359375 C 3.519531 -2.265625 3.695312 -2.125 3.8125 -1.9375 C 3.9375 -1.75 4 -1.53125 4 -1.28125 C 4 -0.882812 3.863281 -0.570312 3.59375 -0.34375 C 3.332031 -0.113281 2.972656 0 2.515625 0 Z M 1.234375 -0.53125 L 2.5 -0.53125 C 2.789062 -0.53125 3.015625 -0.597656 3.171875 -0.734375 C 3.335938 -0.867188 3.421875 -1.054688 3.421875 -1.296875 C 3.421875 -1.546875 3.335938 -1.734375 3.171875 -1.859375 C 3.015625 -1.992188 2.789062 -2.0625 2.5 -2.0625 L 1.234375 -2.0625 Z M 1.234375 -2.59375 L 2.421875 -2.59375 C 2.703125 -2.59375 2.914062 -2.65625 3.0625 -2.78125 C 3.21875 -2.90625 3.296875 -3.078125 3.296875 -3.296875 C 3.296875 -3.535156 3.21875 -3.71875 3.0625 -3.84375 C 2.90625 -3.96875 2.691406 -4.03125 2.421875 -4.03125 L 1.234375 -4.03125 Z M 1.234375 -2.59375 "/></g></g></g><g fill="#231f20" fill-opacity="1"><g transform="translate(40.153957, 232.673614)"><g><path d="M 1.828125 0 L 1.828125 -1.640625 L 0.109375 -4.5625 L 0.78125 -4.5625 L 1.515625 -3.28125 L 2.109375 -2.25 L 3.453125 -4.5625 L 4.09375 -4.5625 L 2.390625 -1.640625 L 2.390625 0 Z M 1.828125 0 "/></g></g></g><g fill="#231f20" fill-opacity="1"><g transform="translate(49.58448, 232.673614)"><g/></g></g><g fill="#231f20" fill-opacity="1"><g transform="translate(56.41932, 232.673614)"><g><path d="M 0.671875 0 L 0.671875 -4.5625 L 2.203125 -4.5625 C 2.546875 -4.5625 2.84375 -4.5 3.09375 -4.375 C 3.351562 -4.25 3.550781 -4.070312 3.6875 -3.84375 C 3.832031 -3.613281 3.90625 -3.34375 3.90625 -3.03125 C 3.90625 -2.71875 3.832031 -2.445312 3.6875 -2.21875 C 3.550781 -1.988281 3.351562 -1.8125 3.09375 -1.6875 C 2.84375 -1.5625 2.546875 -1.5 2.203125 -1.5 L 1.234375 -1.5 L 1.234375 0 Z M 1.234375 -2.03125 L 2.203125 -2.03125 C 2.941406 -2.03125 3.3125 -2.359375 3.3125 -3.015625 C 3.3125 -3.679688 2.941406 -4.015625 2.203125 -4.015625 L 1.234375 -4.015625 Z M 1.234375 -2.03125 "/></g></g></g><g fill="#231f20" fill-opacity="1"><g transform="translate(65.80419, 232.673614)"><g><path d="M 0.671875 0 L 0.671875 -4.5625 L 2.40625 -4.5625 C 2.71875 -4.5625 2.988281 -4.5 3.21875 -4.375 C 3.457031 -4.257812 3.640625 -4.09375 3.765625 -3.875 C 3.898438 -3.65625 3.96875 -3.394531 3.96875 -3.09375 C 3.96875 -2.726562 3.875 -2.421875 3.6875 -2.171875 C 3.5 -1.929688 3.238281 -1.769531 2.90625 -1.6875 L 4.046875 0 L 3.359375 0 L 2.234375 -1.640625 L 1.234375 -1.640625 L 1.234375 0 Z M 1.234375 -2.1875 L 2.34375 -2.1875 C 2.675781 -2.1875 2.929688 -2.265625 3.109375 -2.421875 C 3.296875 -2.578125 3.390625 -2.800781 3.390625 -3.09375 C 3.390625 -3.382812 3.296875 -3.609375 3.109375 -3.765625 C 2.929688 -3.929688 2.675781 -4.015625 2.34375 -4.015625 L 1.234375 -4.015625 Z M 1.234375 -2.1875 "/></g></g></g><g fill="#231f20" fill-opacity="1"><g transform="translate(75.462974, 232.673614)"><g><path d="M 0.109375 0 L 1.984375 -4.5625 L 2.515625 -4.5625 L 4.390625 0 L 3.796875 0 L 3.359375 -1.03125 L 1.140625 -1.03125 L 0.71875 0 Z M 1.359375 -1.5625 L 3.140625 -1.5625 L 2.25 -3.765625 Z M 1.359375 -1.5625 "/></g></g></g><g fill="#231f20" fill-opacity="1"><g transform="translate(85.193498, 232.673614)"><g><path d="M 0.671875 0 L 0.671875 -4.5625 L 2.4375 -4.5625 C 2.875 -4.5625 3.222656 -4.453125 3.484375 -4.234375 C 3.742188 -4.015625 3.875 -3.71875 3.875 -3.34375 C 3.875 -3.125 3.820312 -2.929688 3.71875 -2.765625 C 3.613281 -2.597656 3.46875 -2.460938 3.28125 -2.359375 C 3.519531 -2.265625 3.695312 -2.125 3.8125 -1.9375 C 3.9375 -1.75 4 -1.53125 4 -1.28125 C 4 -0.882812 3.863281 -0.570312 3.59375 -0.34375 C 3.332031 -0.113281 2.972656 0 2.515625 0 Z M 1.234375 -0.53125 L 2.5 -0.53125 C 2.789062 -0.53125 3.015625 -0.597656 3.171875 -0.734375 C 3.335938 -0.867188 3.421875 -1.054688 3.421875 -1.296875 C 3.421875 -1.546875 3.335938 -1.734375 3.171875 -1.859375 C 3.015625 -1.992188 2.789062 -2.0625 2.5 -2.0625 L 1.234375 -2.0625 Z M 1.234375 -2.59375 L 2.421875 -2.59375 C 2.703125 -2.59375 2.914062 -2.65625 3.0625 -2.78125 C 3.21875 -2.90625 3.296875 -3.078125 3.296875 -3.296875 C 3.296875 -3.535156 3.21875 -3.71875 3.0625 -3.84375 C 2.90625 -3.96875 2.691406 -4.03125 2.421875 -4.03125 L 1.234375 -4.03125 Z M 1.234375 -2.59375 "/></g></g></g><g fill="#231f20" fill-opacity="1"><g transform="translate(94.787067, 232.673614)"><g><path d="M 3.65625 0 L 3.65625 -2.046875 L 1.234375 -2.046875 L 1.234375 0 L 0.671875 0 L 0.671875 -4.5625 L 1.234375 -4.5625 L 1.234375 -2.59375 L 3.65625 -2.59375 L 3.65625 -4.5625 L 4.234375 -4.5625 L 4.234375 0 Z M 3.65625 0 "/></g></g></g><g fill="#231f20" fill-opacity="1"><g transform="translate(104.902385, 232.673614)"><g><path d="M 0.109375 0 L 1.984375 -4.5625 L 2.515625 -4.5625 L 4.390625 0 L 3.796875 0 L 3.359375 -1.03125 L 1.140625 -1.03125 L 0.71875 0 Z M 1.359375 -1.5625 L 3.140625 -1.5625 L 2.25 -3.765625 Z M 1.359375 -1.5625 "/></g></g></g><g fill="#231f20" fill-opacity="1"><g transform="translate(114.632914, 232.673614)"><g><path d="M 1.765625 0 L 1.765625 -4.015625 L 0.21875 -4.015625 L 0.21875 -4.5625 L 3.875 -4.5625 L 3.875 -4.015625 L 2.34375 -4.015625 L 2.34375 0 Z M 1.765625 0 "/></g></g></g><g fill="#231f20" fill-opacity="1"><g transform="translate(123.959092, 232.673614)"><g/></g></g><g fill="#231f20" fill-opacity="1"><g transform="translate(130.793934, 232.673614)"><g><path d="M 2.6875 0.078125 C 2.351562 0.078125 2.039062 0.0195312 1.75 -0.09375 C 1.46875 -0.207031 1.222656 -0.367188 1.015625 -0.578125 C 0.816406 -0.796875 0.660156 -1.046875 0.546875 -1.328125 C 0.429688 -1.617188 0.375 -1.9375 0.375 -2.28125 C 0.375 -2.625 0.429688 -2.9375 0.546875 -3.21875 C 0.660156 -3.507812 0.816406 -3.757812 1.015625 -3.96875 C 1.222656 -4.1875 1.46875 -4.351562 1.75 -4.46875 C 2.039062 -4.582031 2.351562 -4.640625 2.6875 -4.640625 C 3.039062 -4.640625 3.367188 -4.570312 3.671875 -4.4375 C 3.972656 -4.3125 4.234375 -4.125 4.453125 -3.875 C 4.671875 -3.632812 4.828125 -3.347656 4.921875 -3.015625 L 4.3125 -3.015625 C 4.195312 -3.335938 3.992188 -3.59375 3.703125 -3.78125 C 3.410156 -3.976562 3.078125 -4.078125 2.703125 -4.078125 C 2.367188 -4.078125 2.066406 -4 1.796875 -3.84375 C 1.535156 -3.6875 1.332031 -3.472656 1.1875 -3.203125 C 1.039062 -2.941406 0.96875 -2.632812 0.96875 -2.28125 C 0.96875 -1.925781 1.039062 -1.613281 1.1875 -1.34375 C 1.332031 -1.070312 1.535156 -0.859375 1.796875 -0.703125 C 2.066406 -0.554688 2.367188 -0.484375 2.703125 -0.484375 C 3.085938 -0.484375 3.429688 -0.582031 3.734375 -0.78125 C 4.035156 -0.988281 4.242188 -1.265625 4.359375 -1.609375 L 4.96875 -1.609375 C 4.875 -1.265625 4.71875 -0.96875 4.5 -0.71875 C 4.28125 -0.46875 4.015625 -0.269531 3.703125 -0.125 C 3.390625 0.0078125 3.050781 0.078125 2.6875 0.078125 Z M 2.6875 0.078125 "/></g></g></g><g fill="#231f20" fill-opacity="1"><g transform="translate(141.333167, 232.673614)"><g><path d="M 3.65625 0 L 3.65625 -2.046875 L 1.234375 -2.046875 L 1.234375 0 L 0.671875 0 L 0.671875 -4.5625 L 1.234375 -4.5625 L 1.234375 -2.59375 L 3.65625 -2.59375 L 3.65625 -4.5625 L 4.234375 -4.5625 L 4.234375 0 Z M 3.65625 0 "/></g></g></g><g fill="#231f20" fill-opacity="1"><g transform="translate(151.448486, 232.673614)"><g><path d="M 0.109375 0 L 1.984375 -4.5625 L 2.515625 -4.5625 L 4.390625 0 L 3.796875 0 L 3.359375 -1.03125 L 1.140625 -1.03125 L 0.71875 0 Z M 1.359375 -1.5625 L 3.140625 -1.5625 L 2.25 -3.765625 Z M 1.359375 -1.5625 "/></g></g></g><g fill="#231f20" fill-opacity="1"><g transform="translate(161.179015, 232.673614)"><g><path d="M 0.671875 0 L 0.671875 -4.5625 L 1.203125 -4.5625 L 3.734375 -0.984375 L 3.734375 -4.5625 L 4.28125 -4.5625 L 4.28125 0 L 3.75 0 L 1.234375 -3.578125 L 1.234375 0 Z M 0.671875 0 "/></g></g></g><g fill="#231f20" fill-opacity="1"><g transform="translate(171.353022, 232.673614)"><g><path d="M 0.671875 0 L 0.671875 -4.5625 L 2.234375 -4.5625 C 2.703125 -4.5625 3.113281 -4.460938 3.46875 -4.265625 C 3.820312 -4.078125 4.09375 -3.8125 4.28125 -3.46875 C 4.476562 -3.125 4.578125 -2.726562 4.578125 -2.28125 C 4.578125 -1.832031 4.476562 -1.4375 4.28125 -1.09375 C 4.09375 -0.75 3.820312 -0.476562 3.46875 -0.28125 C 3.113281 -0.09375 2.703125 0 2.234375 0 Z M 1.234375 -0.546875 L 2.234375 -0.546875 C 2.585938 -0.546875 2.894531 -0.617188 3.15625 -0.765625 C 3.414062 -0.910156 3.617188 -1.113281 3.765625 -1.375 C 3.921875 -1.632812 4 -1.9375 4 -2.28125 C 4 -2.625 3.921875 -2.925781 3.765625 -3.1875 C 3.617188 -3.445312 3.410156 -3.648438 3.140625 -3.796875 C 2.878906 -3.941406 2.570312 -4.015625 2.21875 -4.015625 L 1.234375 -4.015625 Z M 1.234375 -0.546875 "/></g></g></g><g fill="#231f20" fill-opacity="1"><g transform="translate(181.533548, 232.673614)"><g><path d="M 0.671875 0 L 0.671875 -4.5625 L 3.4375 -4.5625 L 3.4375 -4.03125 L 1.234375 -4.03125 L 1.234375 -2.59375 L 3.265625 -2.59375 L 3.265625 -2.0625 L 1.234375 -2.0625 L 1.234375 -0.53125 L 3.5 -0.53125 L 3.5 0 Z M 0.671875 0 "/></g></g></g><g fill="#231f20" fill-opacity="1"><g transform="translate(190.683634, 232.673614)"><g><path d="M 0.671875 0 L 0.671875 -4.5625 L 1.234375 -4.5625 L 1.234375 -0.546875 L 3.453125 -0.546875 L 3.453125 0 Z M 0.671875 0 "/></g></g></g><g fill="#231f20" fill-opacity="1"><g transform="translate(199.559791, 232.673614)"><g><path d="M 0.109375 0 L 1.984375 -4.5625 L 2.515625 -4.5625 L 4.390625 0 L 3.796875 0 L 3.359375 -1.03125 L 1.140625 -1.03125 L 0.71875 0 Z M 1.359375 -1.5625 L 3.140625 -1.5625 L 2.25 -3.765625 Z M 1.359375 -1.5625 "/></g></g></g></svg>